{
	"patcher" : 	{
		"fileversion" : 1,
		"rect" : [ 600.0, 126.0, 704.0, 320.0 ],
		"bglocked" : 0,
		"defrect" : [ 600.0, 126.0, 704.0, 320.0 ],
		"openrect" : [ 0.0, 0.0, 0.0, 0.0 ],
		"openinpresentation" : 0,
		"default_fontsize" : 12.0,
		"default_fontface" : 0,
		"default_fontname" : "Arial",
		"gridonopen" : 0,
		"gridsize" : [ 15.0, 15.0 ],
		"gridsnaponopen" : 0,
		"toolbarvisible" : 1,
		"boxanimatetime" : 200,
		"imprint" : 0,
		"enablehscroll" : 1,
		"enablevscroll" : 1,
		"devicewidth" : 0.0,
		"boxes" : [ 			{
				"box" : 				{
					"maxclass" : "comment",
					"text" : "N.B. if you have no arguments - audio processing will be OFF!",
					"fontsize" : 12.0,
					"numinlets" : 1,
					"patching_rect" : [ 326.0, 278.0, 341.0, 20.0 ],
					"numoutlets" : 0,
					"id" : "obj-33",
					"fontname" : "Arial"
				}

			}
, 			{
				"box" : 				{
					"maxclass" : "comment",
					"text" : "2 - busy flag (defaults to off)",
					"fontsize" : 12.0,
					"numinlets" : 1,
					"patching_rect" : [ 326.0, 190.0, 159.0, 20.0 ],
					"numoutlets" : 0,
					"id" : "obj-31",
					"fontname" : "Arial"
				}

			}
, 			{
				"box" : 				{
					"maxclass" : "comment",
					"text" : "1 - audio flag (opposite of mute - defaults to audio off - ie. mute on)",
					"fontsize" : 12.0,
					"numinlets" : 1,
					"patching_rect" : [ 326.0, 162.0, 365.0, 20.0 ],
					"numoutlets" : 0,
					"id" : "obj-30",
					"fontname" : "Arial"
				}

			}
, 			{
				"box" : 				{
					"maxclass" : "comment",
					"text" : "optional argments are: ",
					"fontsize" : 12.0,
					"numinlets" : 1,
					"patching_rect" : [ 326.0, 134.0, 133.0, 20.0 ],
					"numoutlets" : 0,
					"id" : "obj-27",
					"fontname" : "Arial"
				}

			}
, 			{
				"box" : 				{
					"maxclass" : "comment",
					"text" : "delete this patch and free the slot",
					"fontsize" : 12.0,
					"numinlets" : 1,
					"patching_rect" : [ 450.0, 27.0, 187.0, 20.0 ],
					"numoutlets" : 0,
					"id" : "obj-26",
					"fontname" : "Arial"
				}

			}
, 			{
				"box" : 				{
					"maxclass" : "comment",
					"text" : "set busy on / mute off",
					"fontsize" : 12.0,
					"numinlets" : 1,
					"patching_rect" : [ 306.0, 27.0, 125.0, 20.0 ],
					"numoutlets" : 0,
					"id" : "obj-25",
					"fontname" : "Arial"
				}

			}
, 			{
				"box" : 				{
					"maxclass" : "comment",
					"text" : "set mute state",
					"fontsize" : 12.0,
					"numinlets" : 1,
					"patching_rect" : [ 194.0, 27.0, 85.0, 20.0 ],
					"numoutlets" : 0,
					"id" : "obj-24",
					"fontname" : "Arial"
				}

			}
, 			{
				"box" : 				{
					"maxclass" : "comment",
					"text" : "set busy state",
					"fontsize" : 12.0,
					"numinlets" : 1,
					"patching_rect" : [ 89.0, 27.0, 85.0, 20.0 ],
					"numoutlets" : 0,
					"id" : "obj-10",
					"fontname" : "Arial"
				}

			}
, 			{
				"box" : 				{
					"maxclass" : "comment",
					"text" : "output",
					"fontsize" : 12.0,
					"numinlets" : 1,
					"patching_rect" : [ 25.0, 27.0, 44.0, 20.0 ],
					"numoutlets" : 0,
					"id" : "obj-5",
					"fontname" : "Arial"
				}

			}
, 			{
				"box" : 				{
					"maxclass" : "comment",
					"text" : "Busy Status",
					"fontsize" : 12.0,
					"numinlets" : 1,
					"patching_rect" : [ 233.0, 214.0, 74.0, 20.0 ],
					"numoutlets" : 0,
					"id" : "obj-23",
					"fontname" : "Arial"
				}

			}
, 			{
				"box" : 				{
					"maxclass" : "comment",
					"text" : "Mute Status",
					"fontsize" : 12.0,
					"numinlets" : 1,
					"patching_rect" : [ 157.0, 214.0, 74.0, 20.0 ],
					"numoutlets" : 0,
					"id" : "obj-18",
					"fontname" : "Arial"
				}

			}
, 			{
				"box" : 				{
					"maxclass" : "comment",
					"text" : "Patch Index",
					"fontsize" : 12.0,
					"numinlets" : 1,
					"patching_rect" : [ 80.0, 214.0, 74.0, 20.0 ],
					"numoutlets" : 0,
					"id" : "obj-11",
					"fontname" : "Arial"
				}

			}
, 			{
				"box" : 				{
					"maxclass" : "toggle",
					"numinlets" : 1,
					"patching_rect" : [ 347.0, 55.0, 20.0, 20.0 ],
					"numoutlets" : 1,
					"id" : "obj-9",
					"outlettype" : [ "int" ]
				}

			}
, 			{
				"box" : 				{
					"maxclass" : "toggle",
					"numinlets" : 1,
					"patching_rect" : [ 218.0, 55.0, 20.0, 20.0 ],
					"numoutlets" : 1,
					"id" : "obj-7",
					"outlettype" : [ "int" ]
				}

			}
, 			{
				"box" : 				{
					"maxclass" : "toggle",
					"numinlets" : 1,
					"patching_rect" : [ 93.0, 55.0, 20.0, 20.0 ],
					"numoutlets" : 1,
					"id" : "obj-6",
					"outlettype" : [ "int" ]
				}

			}
, 			{
				"box" : 				{
					"maxclass" : "number",
					"fontsize" : 12.0,
					"numinlets" : 1,
					"patching_rect" : [ 244.5, 182.0, 50.0, 20.0 ],
					"numoutlets" : 2,
					"id" : "obj-4",
					"fontname" : "Arial",
					"outlettype" : [ "int", "bang" ]
				}

			}
, 			{
				"box" : 				{
					"maxclass" : "number",
					"fontsize" : 12.0,
					"numinlets" : 1,
					"patching_rect" : [ 165.5, 182.0, 50.0, 20.0 ],
					"numoutlets" : 2,
					"id" : "obj-1",
					"fontname" : "Arial",
					"outlettype" : [ "int", "bang" ]
				}

			}
, 			{
				"box" : 				{
					"maxclass" : "newobj",
					"text" : "*~ 0.05",
					"fontsize" : 12.0,
					"numinlets" : 2,
					"patching_rect" : [ 31.0, 246.0, 49.0, 20.0 ],
					"numoutlets" : 1,
					"id" : "obj-22",
					"fontname" : "Arial",
					"outlettype" : [ "signal" ]
				}

			}
, 			{
				"box" : 				{
					"maxclass" : "newobj",
					"text" : "cycle~",
					"fontsize" : 12.0,
					"numinlets" : 2,
					"patching_rect" : [ 31.0, 214.0, 45.0, 20.0 ],
					"numoutlets" : 1,
					"id" : "obj-21",
					"fontname" : "Arial",
					"outlettype" : [ "signal" ]
				}

			}
, 			{
				"box" : 				{
					"maxclass" : "newobj",
					"text" : "* 235.",
					"fontsize" : 12.0,
					"numinlets" : 2,
					"patching_rect" : [ 31.0, 182.0, 42.0, 20.0 ],
					"numoutlets" : 1,
					"id" : "obj-20",
					"fontname" : "Arial",
					"outlettype" : [ "float" ]
				}

			}
, 			{
				"box" : 				{
					"maxclass" : "toggle",
					"numinlets" : 1,
					"patching_rect" : [ 146.0, 55.0, 20.0, 20.0 ],
					"numoutlets" : 1,
					"id" : "obj-19",
					"outlettype" : [ "int" ]
				}

			}
, 			{
				"box" : 				{
					"maxclass" : "number",
					"fontsize" : 12.0,
					"numinlets" : 1,
					"patching_rect" : [ 86.0, 182.0, 50.0, 20.0 ],
					"numoutlets" : 2,
					"id" : "obj-12",
					"fontname" : "Arial",
					"outlettype" : [ "int", "bang" ]
				}

			}
, 			{
				"box" : 				{
					"maxclass" : "newobj",
					"text" : "dynamic.this~ 1",
					"fontsize" : 12.0,
					"numinlets" : 1,
					"patching_rect" : [ 31.0, 134.0, 288.0, 20.0 ],
					"numoutlets" : 3,
					"id" : "obj-8",
					"fontname" : "Arial",
					"outlettype" : [ "int", "int", "int" ]
				}

			}
, 			{
				"box" : 				{
					"maxclass" : "newobj",
					"text" : "dynamic.out~ 1",
					"fontsize" : 12.0,
					"numinlets" : 1,
					"patching_rect" : [ 31.0, 278.0, 92.0, 20.0 ],
					"numoutlets" : 0,
					"id" : "obj-2",
					"fontname" : "Arial"
				}

			}
, 			{
				"box" : 				{
					"maxclass" : "message",
					"text" : "busy $1",
					"fontsize" : 12.0,
					"numinlets" : 2,
					"patching_rect" : [ 93.0, 79.0, 51.0, 18.0 ],
					"numoutlets" : 1,
					"id" : "obj-13",
					"fontname" : "Arial",
					"outlettype" : [ "" ]
				}

			}
, 			{
				"box" : 				{
					"maxclass" : "message",
					"text" : "mute $1",
					"fontsize" : 12.0,
					"numinlets" : 2,
					"patching_rect" : [ 218.0, 79.0, 52.0, 18.0 ],
					"numoutlets" : 1,
					"id" : "obj-14",
					"fontname" : "Arial",
					"outlettype" : [ "" ]
				}

			}
, 			{
				"box" : 				{
					"maxclass" : "message",
					"text" : "flags $1",
					"fontsize" : 12.0,
					"numinlets" : 2,
					"patching_rect" : [ 347.0, 79.0, 51.0, 18.0 ],
					"numoutlets" : 1,
					"id" : "obj-15",
					"fontname" : "Arial",
					"outlettype" : [ "" ]
				}

			}
, 			{
				"box" : 				{
					"maxclass" : "message",
					"text" : "delete",
					"fontsize" : 12.0,
					"numinlets" : 2,
					"patching_rect" : [ 474.0, 79.0, 50.0, 18.0 ],
					"numoutlets" : 1,
					"id" : "obj-16",
					"fontname" : "Arial",
					"outlettype" : [ "" ]
				}

			}
, 			{
				"box" : 				{
					"maxclass" : "button",
					"numinlets" : 1,
					"patching_rect" : [ 31.0, 55.0, 20.0, 20.0 ],
					"numoutlets" : 1,
					"id" : "obj-17",
					"outlettype" : [ "bang" ]
				}

			}
 ],
		"lines" : [ 			{
				"patchline" : 				{
					"source" : [ "obj-9", 0 ],
					"destination" : [ "obj-15", 0 ],
					"hidden" : 0,
					"midpoints" : [  ]
				}

			}
, 			{
				"patchline" : 				{
					"source" : [ "obj-7", 0 ],
					"destination" : [ "obj-14", 0 ],
					"hidden" : 0,
					"midpoints" : [  ]
				}

			}
, 			{
				"patchline" : 				{
					"source" : [ "obj-6", 0 ],
					"destination" : [ "obj-13", 0 ],
					"hidden" : 0,
					"midpoints" : [  ]
				}

			}
, 			{
				"patchline" : 				{
					"source" : [ "obj-8", 2 ],
					"destination" : [ "obj-4", 0 ],
					"hidden" : 0,
					"midpoints" : [ 309.5, 167.0, 254.0, 167.0 ]
				}

			}
, 			{
				"patchline" : 				{
					"source" : [ "obj-8", 1 ],
					"destination" : [ "obj-1", 0 ],
					"hidden" : 0,
					"midpoints" : [  ]
				}

			}
, 			{
				"patchline" : 				{
					"source" : [ "obj-8", 0 ],
					"destination" : [ "obj-20", 0 ],
					"hidden" : 0,
					"midpoints" : [  ]
				}

			}
, 			{
				"patchline" : 				{
					"source" : [ "obj-8", 0 ],
					"destination" : [ "obj-12", 0 ],
					"hidden" : 0,
					"midpoints" : [ 40.5, 167.0, 95.5, 167.0 ]
				}

			}
, 			{
				"patchline" : 				{
					"source" : [ "obj-13", 0 ],
					"destination" : [ "obj-8", 0 ],
					"hidden" : 0,
					"midpoints" : [ 102.5, 122.5, 40.5, 122.5 ]
				}

			}
, 			{
				"patchline" : 				{
					"source" : [ "obj-14", 0 ],
					"destination" : [ "obj-8", 0 ],
					"hidden" : 0,
					"midpoints" : [ 227.5, 122.5, 40.5, 122.5 ]
				}

			}
, 			{
				"patchline" : 				{
					"source" : [ "obj-15", 0 ],
					"destination" : [ "obj-8", 0 ],
					"hidden" : 0,
					"midpoints" : [ 356.5, 122.5, 40.5, 122.5 ]
				}

			}
, 			{
				"patchline" : 				{
					"source" : [ "obj-16", 0 ],
					"destination" : [ "obj-8", 0 ],
					"hidden" : 0,
					"midpoints" : [ 483.5, 122.5, 40.5, 122.5 ]
				}

			}
, 			{
				"patchline" : 				{
					"source" : [ "obj-17", 0 ],
					"destination" : [ "obj-8", 0 ],
					"hidden" : 0,
					"midpoints" : [  ]
				}

			}
, 			{
				"patchline" : 				{
					"source" : [ "obj-22", 0 ],
					"destination" : [ "obj-2", 0 ],
					"hidden" : 0,
					"midpoints" : [  ]
				}

			}
, 			{
				"patchline" : 				{
					"source" : [ "obj-21", 0 ],
					"destination" : [ "obj-22", 0 ],
					"hidden" : 0,
					"midpoints" : [  ]
				}

			}
, 			{
				"patchline" : 				{
					"source" : [ "obj-20", 0 ],
					"destination" : [ "obj-21", 0 ],
					"hidden" : 0,
					"midpoints" : [  ]
				}

			}
, 			{
				"patchline" : 				{
					"source" : [ "obj-19", 0 ],
					"destination" : [ "obj-8", 0 ],
					"hidden" : 0,
					"midpoints" : [ 155.5, 122.5, 40.5, 122.5 ]
				}

			}
 ]
	}

}
